<mxfile host="app.diagrams.net" agent="Mozilla/5.0 (Windows NT 10.0; Win64; x64) AppleWebKit/537.36 (KHTML, like Gecko) Chrome/132.0.0.0 Safari/537.36" version="26.0.13">
  <diagram id="C5RBs43oDa-KdzZeNtuy" name="Page-1">
    <mxGraphModel dx="2150" dy="687" grid="1" gridSize="10" guides="1" tooltips="1" connect="1" arrows="1" fold="1" page="1" pageScale="1" pageWidth="827" pageHeight="1169" math="0" shadow="0">
      <root>
        <mxCell id="WIyWlLk6GJQsqaUBKTNV-0" />
        <mxCell id="WIyWlLk6GJQsqaUBKTNV-1" parent="WIyWlLk6GJQsqaUBKTNV-0" />
        <mxCell id="pSp7o6skjhisgilr2PIs-1" value="Start" style="strokeWidth=2;html=1;shape=mxgraph.flowchart.terminator;whiteSpace=wrap;" parent="WIyWlLk6GJQsqaUBKTNV-1" vertex="1">
          <mxGeometry x="357" y="110" width="100" height="60" as="geometry" />
        </mxCell>
        <mxCell id="pSp7o6skjhisgilr2PIs-4" value="Flowchart defining the logical flow and main loop for the stock management system.&lt;br&gt;Input verification processes not included." style="text;html=1;strokeColor=none;fillColor=none;align=center;verticalAlign=middle;whiteSpace=wrap;rounded=0;" parent="WIyWlLk6GJQsqaUBKTNV-1" vertex="1">
          <mxGeometry x="282" y="30" width="250" height="30" as="geometry" />
        </mxCell>
        <mxCell id="pSp7o6skjhisgilr2PIs-7" value="Create lists for storing items, prices, and quantities" style="rounded=1;whiteSpace=wrap;html=1;absoluteArcSize=1;arcSize=14;strokeWidth=2;" parent="WIyWlLk6GJQsqaUBKTNV-1" vertex="1">
          <mxGeometry x="349" y="210" width="116" height="50" as="geometry" />
        </mxCell>
        <mxCell id="pSp7o6skjhisgilr2PIs-8" value="" style="endArrow=classic;html=1;rounded=0;entryX=0.5;entryY=0;entryDx=0;entryDy=0;exitX=0.5;exitY=1;exitDx=0;exitDy=0;exitPerimeter=0;" parent="WIyWlLk6GJQsqaUBKTNV-1" source="pSp7o6skjhisgilr2PIs-1" target="pSp7o6skjhisgilr2PIs-7" edge="1">
          <mxGeometry width="50" height="50" relative="1" as="geometry">
            <mxPoint x="383" y="290" as="sourcePoint" />
            <mxPoint x="433" y="240" as="targetPoint" />
          </mxGeometry>
        </mxCell>
        <mxCell id="pSp7o6skjhisgilr2PIs-73" style="edgeStyle=orthogonalEdgeStyle;rounded=0;orthogonalLoop=1;jettySize=auto;html=1;entryX=0.5;entryY=0;entryDx=0;entryDy=0;entryPerimeter=0;" parent="WIyWlLk6GJQsqaUBKTNV-1" source="pSp7o6skjhisgilr2PIs-9" target="pSp7o6skjhisgilr2PIs-18" edge="1">
          <mxGeometry relative="1" as="geometry" />
        </mxCell>
        <mxCell id="pSp7o6skjhisgilr2PIs-9" value="Display options to user, and take in instruction.&amp;nbsp;" style="rounded=1;whiteSpace=wrap;html=1;absoluteArcSize=1;arcSize=14;strokeWidth=2;" parent="WIyWlLk6GJQsqaUBKTNV-1" vertex="1">
          <mxGeometry x="342" y="300" width="130" height="40" as="geometry" />
        </mxCell>
        <mxCell id="pSp7o6skjhisgilr2PIs-10" value="" style="endArrow=classic;html=1;rounded=0;entryX=0.5;entryY=0;entryDx=0;entryDy=0;exitX=0.5;exitY=1;exitDx=0;exitDy=0;exitPerimeter=0;" parent="WIyWlLk6GJQsqaUBKTNV-1" edge="1">
          <mxGeometry width="50" height="50" relative="1" as="geometry">
            <mxPoint x="406" y="260" as="sourcePoint" />
            <mxPoint x="406" y="300" as="targetPoint" />
          </mxGeometry>
        </mxCell>
        <mxCell id="pSp7o6skjhisgilr2PIs-18" value="Evaluate user option" style="strokeWidth=2;html=1;shape=mxgraph.flowchart.decision;whiteSpace=wrap;" parent="WIyWlLk6GJQsqaUBKTNV-1" vertex="1">
          <mxGeometry x="357" y="380" width="100" height="100" as="geometry" />
        </mxCell>
        <mxCell id="pSp7o6skjhisgilr2PIs-68" style="edgeStyle=orthogonalEdgeStyle;rounded=0;orthogonalLoop=1;jettySize=auto;html=1;entryX=0.5;entryY=0;entryDx=0;entryDy=0;" parent="WIyWlLk6GJQsqaUBKTNV-1" source="pSp7o6skjhisgilr2PIs-20" target="pSp7o6skjhisgilr2PIs-67" edge="1">
          <mxGeometry relative="1" as="geometry" />
        </mxCell>
        <mxCell id="pSp7o6skjhisgilr2PIs-20" value="Take in item name, price, and quantity" style="rounded=1;whiteSpace=wrap;html=1;absoluteArcSize=1;arcSize=14;strokeWidth=2;" parent="WIyWlLk6GJQsqaUBKTNV-1" vertex="1">
          <mxGeometry x="-600" y="540" width="100" height="50" as="geometry" />
        </mxCell>
        <mxCell id="pSp7o6skjhisgilr2PIs-72" style="edgeStyle=orthogonalEdgeStyle;rounded=0;orthogonalLoop=1;jettySize=auto;html=1;entryX=0.5;entryY=0;entryDx=0;entryDy=0;" parent="WIyWlLk6GJQsqaUBKTNV-1" source="pSp7o6skjhisgilr2PIs-21" target="pSp7o6skjhisgilr2PIs-71" edge="1">
          <mxGeometry relative="1" as="geometry" />
        </mxCell>
        <mxCell id="pSp7o6skjhisgilr2PIs-21" value="Take in item name" style="rounded=1;whiteSpace=wrap;html=1;absoluteArcSize=1;arcSize=14;strokeWidth=2;" parent="WIyWlLk6GJQsqaUBKTNV-1" vertex="1">
          <mxGeometry x="40" y="540" width="100" height="50" as="geometry" />
        </mxCell>
        <mxCell id="pSp7o6skjhisgilr2PIs-70" style="edgeStyle=orthogonalEdgeStyle;rounded=0;orthogonalLoop=1;jettySize=auto;html=1;entryX=0.5;entryY=0;entryDx=0;entryDy=0;" parent="WIyWlLk6GJQsqaUBKTNV-1" source="pSp7o6skjhisgilr2PIs-23" target="pSp7o6skjhisgilr2PIs-69" edge="1">
          <mxGeometry relative="1" as="geometry" />
        </mxCell>
        <mxCell id="pSp7o6skjhisgilr2PIs-23" value="Take in item name" style="rounded=1;whiteSpace=wrap;html=1;absoluteArcSize=1;arcSize=14;strokeWidth=2;" parent="WIyWlLk6GJQsqaUBKTNV-1" vertex="1">
          <mxGeometry x="-280" y="540" width="100" height="50" as="geometry" />
        </mxCell>
        <mxCell id="pSp7o6skjhisgilr2PIs-24" value="Display list values if not empty" style="rounded=1;whiteSpace=wrap;html=1;absoluteArcSize=1;arcSize=14;strokeWidth=2;" parent="WIyWlLk6GJQsqaUBKTNV-1" vertex="1">
          <mxGeometry x="357" y="540" width="100" height="50" as="geometry" />
        </mxCell>
        <mxCell id="pSp7o6skjhisgilr2PIs-58" style="edgeStyle=orthogonalEdgeStyle;rounded=0;orthogonalLoop=1;jettySize=auto;html=1;entryX=0.5;entryY=0;entryDx=0;entryDy=0;entryPerimeter=0;" parent="WIyWlLk6GJQsqaUBKTNV-1" source="pSp7o6skjhisgilr2PIs-25" target="pSp7o6skjhisgilr2PIs-51" edge="1">
          <mxGeometry relative="1" as="geometry" />
        </mxCell>
        <mxCell id="pSp7o6skjhisgilr2PIs-25" value="Ask user for update mode" style="rounded=1;whiteSpace=wrap;html=1;absoluteArcSize=1;arcSize=14;strokeWidth=2;" parent="WIyWlLk6GJQsqaUBKTNV-1" vertex="1">
          <mxGeometry x="670" y="540" width="100" height="50" as="geometry" />
        </mxCell>
        <mxCell id="pSp7o6skjhisgilr2PIs-37" value="" style="endArrow=classic;html=1;rounded=0;exitX=0;exitY=0.5;exitDx=0;exitDy=0;exitPerimeter=0;entryX=0.5;entryY=0;entryDx=0;entryDy=0;" parent="WIyWlLk6GJQsqaUBKTNV-1" source="pSp7o6skjhisgilr2PIs-18" target="pSp7o6skjhisgilr2PIs-20" edge="1">
          <mxGeometry relative="1" as="geometry">
            <mxPoint x="-120" y="470" as="sourcePoint" />
            <mxPoint x="-20" y="470" as="targetPoint" />
            <Array as="points">
              <mxPoint x="-550" y="430" />
            </Array>
          </mxGeometry>
        </mxCell>
        <mxCell id="pSp7o6skjhisgilr2PIs-38" value="Add item" style="edgeLabel;resizable=0;html=1;align=center;verticalAlign=middle;" parent="pSp7o6skjhisgilr2PIs-37" connectable="0" vertex="1">
          <mxGeometry relative="1" as="geometry">
            <mxPoint x="-399" y="40" as="offset" />
          </mxGeometry>
        </mxCell>
        <mxCell id="pSp7o6skjhisgilr2PIs-39" value="" style="endArrow=classic;html=1;rounded=0;exitX=0;exitY=0.5;exitDx=0;exitDy=0;exitPerimeter=0;entryX=0.5;entryY=0;entryDx=0;entryDy=0;" parent="WIyWlLk6GJQsqaUBKTNV-1" source="pSp7o6skjhisgilr2PIs-18" target="pSp7o6skjhisgilr2PIs-23" edge="1">
          <mxGeometry relative="1" as="geometry">
            <mxPoint x="-210" y="280" as="sourcePoint" />
            <mxPoint x="-110" y="280" as="targetPoint" />
            <Array as="points">
              <mxPoint x="-230" y="430" />
            </Array>
          </mxGeometry>
        </mxCell>
        <mxCell id="pSp7o6skjhisgilr2PIs-40" value="Find item quantity" style="edgeLabel;resizable=0;html=1;align=center;verticalAlign=middle;" parent="pSp7o6skjhisgilr2PIs-39" connectable="0" vertex="1">
          <mxGeometry relative="1" as="geometry">
            <mxPoint x="-239" y="50" as="offset" />
          </mxGeometry>
        </mxCell>
        <mxCell id="pSp7o6skjhisgilr2PIs-41" value="" style="endArrow=classic;html=1;rounded=0;entryX=0.5;entryY=0;entryDx=0;entryDy=0;exitX=0.5;exitY=1;exitDx=0;exitDy=0;exitPerimeter=0;" parent="WIyWlLk6GJQsqaUBKTNV-1" source="pSp7o6skjhisgilr2PIs-18" target="pSp7o6skjhisgilr2PIs-21" edge="1">
          <mxGeometry relative="1" as="geometry">
            <mxPoint x="340" y="520" as="sourcePoint" />
            <mxPoint x="440" y="520" as="targetPoint" />
            <Array as="points">
              <mxPoint x="90" y="480" />
            </Array>
          </mxGeometry>
        </mxCell>
        <mxCell id="pSp7o6skjhisgilr2PIs-42" value="Find item price" style="edgeLabel;resizable=0;html=1;align=center;verticalAlign=middle;" parent="pSp7o6skjhisgilr2PIs-41" connectable="0" vertex="1">
          <mxGeometry relative="1" as="geometry">
            <mxPoint x="-129" y="20" as="offset" />
          </mxGeometry>
        </mxCell>
        <mxCell id="pSp7o6skjhisgilr2PIs-43" value="" style="endArrow=classic;html=1;rounded=0;entryX=0.5;entryY=0;entryDx=0;entryDy=0;entryPerimeter=0;exitX=0.5;exitY=1;exitDx=0;exitDy=0;exitPerimeter=0;" parent="WIyWlLk6GJQsqaUBKTNV-1" source="pSp7o6skjhisgilr2PIs-18" edge="1">
          <mxGeometry relative="1" as="geometry">
            <mxPoint x="340" y="520" as="sourcePoint" />
            <mxPoint x="407" y="540" as="targetPoint" />
          </mxGeometry>
        </mxCell>
        <mxCell id="pSp7o6skjhisgilr2PIs-44" value="Display database" style="edgeLabel;resizable=0;html=1;align=center;verticalAlign=middle;" parent="pSp7o6skjhisgilr2PIs-43" connectable="0" vertex="1">
          <mxGeometry relative="1" as="geometry" />
        </mxCell>
        <mxCell id="pSp7o6skjhisgilr2PIs-45" value="" style="endArrow=classic;html=1;rounded=0;exitX=0.5;exitY=1;exitDx=0;exitDy=0;exitPerimeter=0;entryX=0.5;entryY=0;entryDx=0;entryDy=0;" parent="WIyWlLk6GJQsqaUBKTNV-1" source="pSp7o6skjhisgilr2PIs-18" target="pSp7o6skjhisgilr2PIs-25" edge="1">
          <mxGeometry relative="1" as="geometry">
            <mxPoint x="540" y="530" as="sourcePoint" />
            <mxPoint x="640" y="530" as="targetPoint" />
            <Array as="points">
              <mxPoint x="720" y="480" />
            </Array>
          </mxGeometry>
        </mxCell>
        <mxCell id="pSp7o6skjhisgilr2PIs-46" value="Update stock" style="edgeLabel;resizable=0;html=1;align=center;verticalAlign=middle;" parent="pSp7o6skjhisgilr2PIs-45" connectable="0" vertex="1">
          <mxGeometry relative="1" as="geometry">
            <mxPoint x="126" y="20" as="offset" />
          </mxGeometry>
        </mxCell>
        <mxCell id="pSp7o6skjhisgilr2PIs-47" value="" style="endArrow=classic;html=1;rounded=0;exitX=1;exitY=0.5;exitDx=0;exitDy=0;exitPerimeter=0;entryX=0.5;entryY=0;entryDx=0;entryDy=0;" parent="WIyWlLk6GJQsqaUBKTNV-1" source="pSp7o6skjhisgilr2PIs-18" edge="1">
          <mxGeometry relative="1" as="geometry">
            <mxPoint x="540" y="530" as="sourcePoint" />
            <mxPoint x="1030" y="540" as="targetPoint" />
            <Array as="points">
              <mxPoint x="1030" y="430" />
            </Array>
          </mxGeometry>
        </mxCell>
        <mxCell id="pSp7o6skjhisgilr2PIs-49" value="" style="endArrow=classic;html=1;rounded=0;exitX=1;exitY=0.5;exitDx=0;exitDy=0;exitPerimeter=0;entryX=0.5;entryY=0;entryDx=0;entryDy=0;" parent="WIyWlLk6GJQsqaUBKTNV-1" source="pSp7o6skjhisgilr2PIs-18" edge="1">
          <mxGeometry relative="1" as="geometry">
            <mxPoint x="680" y="490" as="sourcePoint" />
            <mxPoint x="1340" y="540" as="targetPoint" />
            <Array as="points">
              <mxPoint x="1340" y="430" />
            </Array>
          </mxGeometry>
        </mxCell>
        <mxCell id="pSp7o6skjhisgilr2PIs-51" value="Select mode - set amount or change by amount." style="strokeWidth=2;html=1;shape=mxgraph.flowchart.decision;whiteSpace=wrap;" parent="WIyWlLk6GJQsqaUBKTNV-1" vertex="1">
          <mxGeometry x="625" y="630" width="190" height="120" as="geometry" />
        </mxCell>
        <mxCell id="pSp7o6skjhisgilr2PIs-66" style="edgeStyle=orthogonalEdgeStyle;rounded=0;orthogonalLoop=1;jettySize=auto;html=1;entryX=0.5;entryY=0;entryDx=0;entryDy=0;" parent="WIyWlLk6GJQsqaUBKTNV-1" source="pSp7o6skjhisgilr2PIs-52" target="pSp7o6skjhisgilr2PIs-65" edge="1">
          <mxGeometry relative="1" as="geometry" />
        </mxCell>
        <mxCell id="pSp7o6skjhisgilr2PIs-52" value="Take in item name and quantity" style="rounded=1;whiteSpace=wrap;html=1;absoluteArcSize=1;arcSize=14;strokeWidth=2;" parent="WIyWlLk6GJQsqaUBKTNV-1" vertex="1">
          <mxGeometry x="600" y="780" width="100" height="50" as="geometry" />
        </mxCell>
        <mxCell id="pSp7o6skjhisgilr2PIs-64" style="edgeStyle=orthogonalEdgeStyle;rounded=0;orthogonalLoop=1;jettySize=auto;html=1;entryX=0.5;entryY=0;entryDx=0;entryDy=0;" parent="WIyWlLk6GJQsqaUBKTNV-1" source="pSp7o6skjhisgilr2PIs-53" target="pSp7o6skjhisgilr2PIs-63" edge="1">
          <mxGeometry relative="1" as="geometry" />
        </mxCell>
        <mxCell id="pSp7o6skjhisgilr2PIs-53" value="Take in item name and quantity" style="rounded=1;whiteSpace=wrap;html=1;absoluteArcSize=1;arcSize=14;strokeWidth=2;" parent="WIyWlLk6GJQsqaUBKTNV-1" vertex="1">
          <mxGeometry x="740" y="780" width="100" height="50" as="geometry" />
        </mxCell>
        <mxCell id="pSp7o6skjhisgilr2PIs-54" value="" style="endArrow=classic;html=1;rounded=0;exitX=0.249;exitY=0.794;exitDx=0;exitDy=0;exitPerimeter=0;entryX=0.5;entryY=0;entryDx=0;entryDy=0;" parent="WIyWlLk6GJQsqaUBKTNV-1" source="pSp7o6skjhisgilr2PIs-51" target="pSp7o6skjhisgilr2PIs-52" edge="1">
          <mxGeometry relative="1" as="geometry">
            <mxPoint x="670" y="620" as="sourcePoint" />
            <mxPoint x="770" y="620" as="targetPoint" />
          </mxGeometry>
        </mxCell>
        <mxCell id="pSp7o6skjhisgilr2PIs-55" value="Set" style="edgeLabel;resizable=0;html=1;align=center;verticalAlign=middle;" parent="pSp7o6skjhisgilr2PIs-54" connectable="0" vertex="1">
          <mxGeometry relative="1" as="geometry" />
        </mxCell>
        <mxCell id="pSp7o6skjhisgilr2PIs-56" value="" style="endArrow=classic;html=1;rounded=0;exitX=0.757;exitY=0.784;exitDx=0;exitDy=0;exitPerimeter=0;entryX=0.5;entryY=0;entryDx=0;entryDy=0;" parent="WIyWlLk6GJQsqaUBKTNV-1" source="pSp7o6skjhisgilr2PIs-51" target="pSp7o6skjhisgilr2PIs-53" edge="1">
          <mxGeometry relative="1" as="geometry">
            <mxPoint x="670" y="620" as="sourcePoint" />
            <mxPoint x="770" y="620" as="targetPoint" />
          </mxGeometry>
        </mxCell>
        <mxCell id="pSp7o6skjhisgilr2PIs-57" value="Change" style="edgeLabel;resizable=0;html=1;align=center;verticalAlign=middle;" parent="pSp7o6skjhisgilr2PIs-56" connectable="0" vertex="1">
          <mxGeometry relative="1" as="geometry" />
        </mxCell>
        <mxCell id="pSp7o6skjhisgilr2PIs-63" value="add change amount to current quantity" style="rounded=1;whiteSpace=wrap;html=1;absoluteArcSize=1;arcSize=14;strokeWidth=2;" parent="WIyWlLk6GJQsqaUBKTNV-1" vertex="1">
          <mxGeometry x="740" y="870" width="100" height="50" as="geometry" />
        </mxCell>
        <mxCell id="pSp7o6skjhisgilr2PIs-65" value="Set item quantity to new value" style="rounded=1;whiteSpace=wrap;html=1;absoluteArcSize=1;arcSize=14;strokeWidth=2;" parent="WIyWlLk6GJQsqaUBKTNV-1" vertex="1">
          <mxGeometry x="600" y="870" width="100" height="50" as="geometry" />
        </mxCell>
        <mxCell id="pSp7o6skjhisgilr2PIs-67" value="Add item, price, and quantity to value lists" style="rounded=1;whiteSpace=wrap;html=1;absoluteArcSize=1;arcSize=14;strokeWidth=2;" parent="WIyWlLk6GJQsqaUBKTNV-1" vertex="1">
          <mxGeometry x="-600" y="640" width="100" height="50" as="geometry" />
        </mxCell>
        <mxCell id="pSp7o6skjhisgilr2PIs-69" value="Return item quantity" style="rounded=1;whiteSpace=wrap;html=1;absoluteArcSize=1;arcSize=14;strokeWidth=2;" parent="WIyWlLk6GJQsqaUBKTNV-1" vertex="1">
          <mxGeometry x="-280" y="640" width="100" height="50" as="geometry" />
        </mxCell>
        <mxCell id="pSp7o6skjhisgilr2PIs-71" value="Return item price" style="rounded=1;whiteSpace=wrap;html=1;absoluteArcSize=1;arcSize=14;strokeWidth=2;" parent="WIyWlLk6GJQsqaUBKTNV-1" vertex="1">
          <mxGeometry x="40" y="640" width="100" height="50" as="geometry" />
        </mxCell>
        <mxCell id="pSp7o6skjhisgilr2PIs-74" value="" style="endArrow=classic;html=1;rounded=0;exitX=0.5;exitY=1;exitDx=0;exitDy=0;entryX=0;entryY=0.5;entryDx=0;entryDy=0;exitPerimeter=0;" parent="WIyWlLk6GJQsqaUBKTNV-1" source="pSp7o6skjhisgilr2PIs-83" target="pSp7o6skjhisgilr2PIs-9" edge="1">
          <mxGeometry width="50" height="50" relative="1" as="geometry">
            <mxPoint x="1340" y="680" as="sourcePoint" />
            <mxPoint x="1420" y="780" as="targetPoint" />
            <Array as="points">
              <mxPoint x="1340" y="1030" />
              <mxPoint x="-690" y="1030" />
              <mxPoint x="-690" y="320" />
            </Array>
          </mxGeometry>
        </mxCell>
        <mxCell id="pSp7o6skjhisgilr2PIs-75" value="" style="endArrow=none;html=1;rounded=0;entryX=0.5;entryY=1;entryDx=0;entryDy=0;" parent="WIyWlLk6GJQsqaUBKTNV-1" edge="1">
          <mxGeometry width="50" height="50" relative="1" as="geometry">
            <mxPoint x="1030" y="1030" as="sourcePoint" />
            <mxPoint x="1030" y="680" as="targetPoint" />
          </mxGeometry>
        </mxCell>
        <mxCell id="pSp7o6skjhisgilr2PIs-76" value="" style="endArrow=none;html=1;rounded=0;entryX=0.5;entryY=1;entryDx=0;entryDy=0;" parent="WIyWlLk6GJQsqaUBKTNV-1" edge="1">
          <mxGeometry width="50" height="50" relative="1" as="geometry">
            <mxPoint x="789" y="1030" as="sourcePoint" />
            <mxPoint x="788.89" y="920" as="targetPoint" />
          </mxGeometry>
        </mxCell>
        <mxCell id="pSp7o6skjhisgilr2PIs-77" value="" style="endArrow=none;html=1;rounded=0;entryX=0.5;entryY=1;entryDx=0;entryDy=0;" parent="WIyWlLk6GJQsqaUBKTNV-1" edge="1">
          <mxGeometry width="50" height="50" relative="1" as="geometry">
            <mxPoint x="649" y="1030" as="sourcePoint" />
            <mxPoint x="648.8899999999999" y="920" as="targetPoint" />
          </mxGeometry>
        </mxCell>
        <mxCell id="pSp7o6skjhisgilr2PIs-78" value="" style="endArrow=none;html=1;rounded=0;entryX=0.5;entryY=1;entryDx=0;entryDy=0;" parent="WIyWlLk6GJQsqaUBKTNV-1" target="pSp7o6skjhisgilr2PIs-24" edge="1">
          <mxGeometry width="50" height="50" relative="1" as="geometry">
            <mxPoint x="407" y="1030" as="sourcePoint" />
            <mxPoint x="808.8899999999999" y="940" as="targetPoint" />
          </mxGeometry>
        </mxCell>
        <mxCell id="pSp7o6skjhisgilr2PIs-79" value="" style="endArrow=none;html=1;rounded=0;entryX=0.5;entryY=1;entryDx=0;entryDy=0;" parent="WIyWlLk6GJQsqaUBKTNV-1" target="pSp7o6skjhisgilr2PIs-71" edge="1">
          <mxGeometry width="50" height="50" relative="1" as="geometry">
            <mxPoint x="90" y="1030" as="sourcePoint" />
            <mxPoint x="818.8899999999999" y="950" as="targetPoint" />
          </mxGeometry>
        </mxCell>
        <mxCell id="pSp7o6skjhisgilr2PIs-80" value="" style="endArrow=none;html=1;rounded=0;entryX=0.5;entryY=1;entryDx=0;entryDy=0;" parent="WIyWlLk6GJQsqaUBKTNV-1" target="pSp7o6skjhisgilr2PIs-69" edge="1">
          <mxGeometry width="50" height="50" relative="1" as="geometry">
            <mxPoint x="-230" y="1030" as="sourcePoint" />
            <mxPoint x="828.8899999999999" y="960" as="targetPoint" />
          </mxGeometry>
        </mxCell>
        <mxCell id="pSp7o6skjhisgilr2PIs-81" value="" style="endArrow=none;html=1;rounded=0;entryX=0.5;entryY=1;entryDx=0;entryDy=0;" parent="WIyWlLk6GJQsqaUBKTNV-1" target="pSp7o6skjhisgilr2PIs-67" edge="1">
          <mxGeometry width="50" height="50" relative="1" as="geometry">
            <mxPoint x="-550" y="1030" as="sourcePoint" />
            <mxPoint x="838.8899999999999" y="970" as="targetPoint" />
          </mxGeometry>
        </mxCell>
        <mxCell id="pSp7o6skjhisgilr2PIs-83" value="End" style="strokeWidth=2;html=1;shape=mxgraph.flowchart.terminator;whiteSpace=wrap;" parent="WIyWlLk6GJQsqaUBKTNV-1" vertex="1">
          <mxGeometry x="1290" y="540" width="100" height="60" as="geometry" />
        </mxCell>
        <mxCell id="_SauWlr59CWtS0oPR7j6-9" style="edgeStyle=orthogonalEdgeStyle;rounded=0;orthogonalLoop=1;jettySize=auto;html=1;entryX=0.5;entryY=0;entryDx=0;entryDy=0;" edge="1" parent="WIyWlLk6GJQsqaUBKTNV-1" source="_SauWlr59CWtS0oPR7j6-10" target="_SauWlr59CWtS0oPR7j6-12">
          <mxGeometry relative="1" as="geometry" />
        </mxCell>
        <mxCell id="_SauWlr59CWtS0oPR7j6-10" value="Take in item name and new price" style="rounded=1;whiteSpace=wrap;html=1;absoluteArcSize=1;arcSize=14;strokeWidth=2;" vertex="1" parent="WIyWlLk6GJQsqaUBKTNV-1">
          <mxGeometry x="980" y="540" width="100" height="50" as="geometry" />
        </mxCell>
        <mxCell id="_SauWlr59CWtS0oPR7j6-11" value="Update item price" style="edgeLabel;resizable=0;html=1;align=center;verticalAlign=middle;" connectable="0" vertex="1" parent="WIyWlLk6GJQsqaUBKTNV-1">
          <mxGeometry x="1030.0028571428568" y="480" as="geometry" />
        </mxCell>
        <mxCell id="_SauWlr59CWtS0oPR7j6-12" value="Update item price" style="rounded=1;whiteSpace=wrap;html=1;absoluteArcSize=1;arcSize=14;strokeWidth=2;" vertex="1" parent="WIyWlLk6GJQsqaUBKTNV-1">
          <mxGeometry x="980" y="630" width="100" height="50" as="geometry" />
        </mxCell>
        <mxCell id="_SauWlr59CWtS0oPR7j6-13" value="Exit" style="edgeLabel;resizable=0;html=1;align=center;verticalAlign=middle;" connectable="0" vertex="1" parent="WIyWlLk6GJQsqaUBKTNV-1">
          <mxGeometry x="1340.0028571428568" y="470" as="geometry" />
        </mxCell>
      </root>
    </mxGraphModel>
  </diagram>
</mxfile>
